<svg height="1000" width="613.77" xmlns="http://www.w3.org/2000/svg"><path d="M0 555.92v-105.896q0 -18.056 12.688 -30.744t30.744 -12.688 30.988 12.688 12.932 30.744v105.896q0 88.816 64.416 152.012t155.184 63.196q90.28 0 154.452 -63.196t64.172 -152.012v-105.896q0 -18.056 12.932 -30.744t30.988 -12.688 30.988 12.688 12.932 30.744v105.896q0 112.728 -74.908 196.908t-186.172 101.26v42.456h136.64q18.056 0 31.232 12.688t13.176 30.256q0 18.056 -12.932 30.744t-31.476 12.688h-361.12q-18.056 0 -30.744 -12.688t-12.688 -30.744q0 -17.568 12.688 -30.256t30.744 -12.688h137.128v-41.968q-73.688 -9.76 -134.444 -51.728t-95.648 -107.116 -34.892 -139.812zm144.448 -4.88v-373.808q0 -66.368 47.58 -113.216t114.924 -46.848q66.856 0 114.192 46.848t47.336 113.216v373.808q0 66.368 -47.336 113.216t-114.192 46.848q-67.344 0 -114.924 -46.848t-47.58 -113.216z"/></svg>